<?xml version="1.0" standalone="no"?>
<!DOCTYPE svg PUBLIC "-//W3C//DTD SVG 20010904//EN"
 "http://www.w3.org/TR/2001/REC-SVG-20010904/DTD/svg10.dtd">
<svg version="1.0" xmlns="http://www.w3.org/2000/svg"
 width="761.000000pt" height="515.000000pt" viewBox="0 0 761.000000 515.000000"
 preserveAspectRatio="xMidYMid meet">

<g transform="translate(0.000000,515.000000) scale(0.100000,-0.100000)"
fill="#000000" stroke="none">
<path d="M5299 5129 c-316 -46 -427 -378 -313 -937 20 -99 23 -130 14 -155 -8
-24 -7 -34 2 -42 13 -12 233 -146 300 -184 21 -11 132 -77 248 -146 192 -115
248 -139 235 -103 -3 8 29 35 78 68 92 62 211 174 219 207 5 20 -6 28 -108 77
-150 72 -247 141 -342 241 -139 146 -215 343 -169 435 55 110 319 60 708 -136
l109 -54 0 92 c-1 300 -167 516 -461 602 -145 41 -372 57 -520 35z"/>
<path d="M1885 5000 c-390 -4 -139 -6 829 -8 764 -1 1387 0 1385 2 -8 7 -1659
11 -2214 6z"/>
<path d="M800 4470 c-19 -4 513 -8 1183 -9 805 -1 1217 2 1217 9 0 12 -2344
12 -2400 0z"/>
<path d="M2390 4070 c-10 -6 191 -9 575 -8 383 1 536 4 435 8 -245 11 -993 11
-1010 0z"/>
<path d="M4833 3889 c-35 -4 -68 -11 -74 -15 -6 -3 -89 -6 -185 -5 l-174 2 0
-131 c0 -119 -2 -135 -25 -180 -44 -87 -98 -112 -300 -140 -159 -21 -266 -98
-342 -245 -65 -127 -67 -118 29 -144 96 -26 256 -87 278 -107 35 -30 227 -103
379 -144 33 -9 41 -14 32 -23 -22 -22 -505 -6 -528 17 -2 2 5 19 16 37 12 19
21 36 21 39 0 3 -105 5 -232 5 l-233 0 -3 389 -2 388 -79 79 -78 79 -1086 0
-1086 0 -6 -54 c-4 -30 -4 -68 0 -85 l7 -31 -86 0 -86 0 0 -755 0 -755 -42 -1
-43 -2 40 -6 c22 -3 41 -3 43 2 2 4 566 7 1253 7 l1249 0 0 -29 c0 -26 -4 -29
-37 -34 -21 -2 -364 -1 -763 4 -398 4 -726 6 -729 3 -2 -2 61 -4 140 -4 l144
0 13 -30 c8 -17 20 -30 28 -30 10 0 14 -15 14 -60 l0 -60 65 0 65 0 0 -123 0
-124 -151 5 -151 5 18 -29 c15 -22 19 -47 19 -109 0 -104 -17 -135 -75 -135
-36 0 -40 -3 -40 -25 0 -23 -4 -25 -45 -25 l-45 0 0 -76 c0 -71 -2 -78 -33
-114 -17 -21 -53 -73 -78 -116 -110 -188 -111 -286 -4 -269 71 11 327 17 410
10 l80 -6 0 -107 c1 -72 7 -126 18 -165 25 -83 84 -200 123 -246 67 -78 219
-165 344 -197 97 -24 251 -15 350 21 256 94 420 328 420 602 l0 83 100 0 99 0
16 -33 c32 -68 23 -67 669 -79 320 -5 669 -8 776 -6 184 4 199 6 265 32 73 28
180 92 211 127 10 12 27 25 37 30 17 10 17 8 1 -28 -36 -87 -36 -85 -12 -78
73 22 128 56 169 106 24 29 70 80 102 113 l57 61 -31 -69 c-79 -176 -78 -355
3 -542 27 -63 48 -92 114 -160 128 -129 279 -194 454 -194 363 0 649 303 627
665 -10 164 -70 297 -191 417 l-68 68 146 0 146 0 -11 27 c-14 37 -111 167
-164 220 -23 22 -61 51 -83 62 -22 11 -44 26 -47 32 -17 26 -136 68 -227 79
-156 18 -414 -8 -476 -48 -30 -20 -36 -11 -51 73 -38 218 -127 499 -196 619
-78 134 -108 208 -113 278 -5 74 2 126 21 152 13 17 15 17 42 -8 41 -38 49
-32 23 17 -20 37 -23 56 -23 157 0 77 5 123 13 138 18 31 9 39 -22 18 -31 -20
-36 -20 -36 -1 0 45 -63 126 -108 140 -63 19 -156 -42 -228 -149 -41 -61 -46
-49 -6 15 15 24 31 49 35 55 4 8 -74 20 -262 39 l-269 29 -6 29 c-15 76 -8
105 43 168 73 90 108 162 124 258 18 102 10 137 -41 187 -39 38 -235 138 -287
146 -16 3 -58 1 -92 -3z m-2063 -249 c0 -21 4 -28 14 -24 8 3 23 -3 34 -14 20
-20 20 -20 40 0 16 16 23 18 41 9 11 -7 21 -16 21 -22 0 -6 12 -1 26 10 19 15
31 18 43 11 10 -5 23 -5 32 1 20 13 27 11 49 -11 l20 -20 20 20 c16 16 25 18
40 10 10 -5 22 -15 26 -21 10 -16 -12 -33 -33 -25 -14 6 -15 9 -4 15 8 5 9 11
3 15 -13 8 -36 -20 -27 -34 3 -5 19 -10 36 -10 16 0 29 -4 29 -10 0 -16 -57
-12 -74 6 -15 14 -16 14 -16 -1 0 -20 -24 -14 -26 6 -2 35 -5 39 -24 39 -16 0
-20 -7 -20 -30 0 -38 -18 -40 -22 -2 -2 19 -9 27 -23 27 -14 0 -21 -8 -23 -27
-3 -29 -22 -39 -22 -12 0 14 -1 14 -16 0 -21 -21 -51 -20 -63 2 -10 16 -10 16
-11 -1 0 -28 -25 -14 -28 16 -5 41 -42 38 -42 -3 0 -16 -4 -30 -10 -30 -6 0
-10 30 -10 70 0 40 4 70 10 70 6 0 10 -13 10 -30z m440 0 c0 -18 5 -29 12 -27
7 1 14 -11 18 -28 6 -37 34 -40 38 -5 6 42 22 48 22 8 0 -19 -7 -41 -15 -48
-8 -7 -15 -21 -15 -31 0 -11 -4 -19 -10 -19 -5 0 -10 7 -10 16 0 9 -9 27 -20
41 -19 25 -20 25 -20 4 0 -11 -4 -21 -9 -21 -5 0 -11 32 -13 70 -2 51 0 70 10
70 7 0 12 -13 12 -30z m-597 -87 c15 -14 37 8 37 37 0 40 18 39 22 -2 2 -25 8
-33 23 -33 15 0 21 8 23 33 4 35 22 35 22 -1 0 -39 -16 -50 -74 -53 -62 -3
-86 11 -86 50 0 36 14 40 21 6 4 -17 9 -34 12 -37z m2097 -664 c0 -5 -9 -9
-20 -9 -19 0 -26 11 -14 23 8 8 34 -3 34 -14z m871 -15 c75 -51 111 -133 74
-164 -18 -15 -19 -34 -2 -52 13 -13 87 -179 87 -196 0 -5 20 -55 45 -112 25
-56 42 -106 39 -111 -3 -5 -17 -9 -31 -9 -18 0 -40 -14 -69 -45 -65 -68 -89
-154 -88 -315 1 -69 9 -177 18 -240 27 -174 33 -436 12 -535 -20 -96 -51 -164
-80 -175 -12 -4 -107 -20 -212 -35 -104 -15 -192 -31 -195 -36 -11 -18 -169
-31 -240 -20 -37 6 -114 11 -171 11 -183 0 -291 37 -350 120 -51 71 -127 210
-143 263 -9 28 -19 97 -22 152 -12 208 51 386 203 576 49 62 56 67 94 67 89 1
152 46 166 117 7 40 -9 96 -36 120 -43 39 -29 43 165 41 102 0 185 -5 185 -9
0 -5 -20 -34 -44 -65 -124 -163 -202 -321 -236 -481 -23 -113 -91 -316 -150
-452 l-38 -87 63 -62 62 -61 33 68 c18 37 61 118 95 178 34 61 79 143 99 183
21 41 43 72 51 72 8 0 15 -4 15 -9 0 -23 -63 -342 -76 -389 -9 -30 -14 -55
-12 -56 1 -1 34 -23 71 -49 l68 -47 10 28 c68 169 257 776 289 924 11 51 25
113 30 138 15 65 25 196 22 264 -3 54 -6 61 -51 106 -46 46 -179 119 -273 149
-30 10 -38 18 -38 37 l0 24 60 -30 c54 -27 60 -28 60 -12 0 39 51 118 107 167
52 45 62 50 93 45 24 -4 43 -1 60 11 39 25 52 29 98 25 26 -2 58 -15 83 -32z
m-1931 -204 l0 -60 -65 0 -65 0 0 60 0 60 65 0 65 0 0 -60z m226 33 c-7 -16
-17 -43 -21 -60 -8 -40 -20 -42 -39 -5 -8 16 -22 34 -30 41 -9 8 -16 22 -16
32 0 17 8 19 60 19 l61 0 -15 -27z m1024 3 c0 -26 2 -26 -107 -1 -46 11 -21
25 42 25 62 0 65 -1 65 -24z m-1356 -268 c-14 -87 -22 -96 -23 -25 -1 53 2 67
14 67 12 0 14 -8 9 -42z m49 -273 l35 -65 -54 0 -54 0 0 65 c0 58 2 65 19 65
14 0 30 -19 54 -65z m2854 -1182 c231 118 507 -24 556 -285 30 -160 -64 -333
-223 -411 -59 -29 -73 -32 -160 -32 -88 0 -101 3 -162 33 -85 41 -167 128
-199 209 -34 88 -32 207 5 290 l28 62 -50 58 c-27 32 -64 71 -81 88 l-32 29
53 47 53 48 81 -81 81 -80 50 25z m-3109 -258 c2 -2 6 -30 9 -62 14 -153 -76
-302 -225 -375 -61 -30 -75 -33 -162 -33 -88 0 -101 3 -162 33 -85 42 -167
128 -199 209 -22 57 -32 188 -18 223 6 14 53 15 380 12 206 -2 376 -6 377 -7z"/>
<path d="M2870 3586 c-13 -17 -6 -36 15 -36 19 0 26 27 11 39 -10 8 -17 7 -26
-3z"/>
<path d="M5369 2835 c-25 -13 -39 -51 -39 -106 0 -49 77 -75 135 -45 36 19 45
33 45 73 0 67 -81 112 -141 78z"/>
<path d="M948 2053 c18 -2 45 -2 60 0 15 2 0 4 -33 4 -33 0 -45 -2 -27 -4z"/>
<path d="M1118 2053 c23 -2 59 -2 80 0 20 2 1 4 -43 4 -44 0 -61 -2 -37 -4z"/>
</g>
</svg>
